<?xml version="1.0" standalone="no"?>
<!DOCTYPE svg PUBLIC "-//W3C//DTD SVG 20010904//EN"
 "http://www.w3.org/TR/2001/REC-SVG-20010904/DTD/svg10.dtd">
<svg version="1.0" xmlns="http://www.w3.org/2000/svg"
 width="512.000000pt" height="512.000000pt" viewBox="0 0 512.000000 512.000000"
 preserveAspectRatio="xMidYMid meet">

<g transform="translate(0.000000,512.000000) scale(0.100000,-0.100000)"
fill="#000000" stroke="none">
<path d="M3760 3250 c-681 -337 -1026 -512 -1028 -523 -2 -9 -2 -17 0 -17 9 0
2054 1012 2063 1021 54 52 -140 -38 -1035 -481z"/>
<path d="M3768 3187 l-1038 -512 0 -127 c0 -71 2 -128 5 -128 3 0 124 96 269
214 145 118 279 224 297 235 42 26 117 28 166 4 74 -35 109 -139 74 -222 -11
-25 -119 -118 -440 -378 -234 -189 -443 -353 -463 -364 -47 -24 -104 -24 -148
-1 -19 10 -139 102 -267 205 -128 103 -237 187 -242 187 -6 0 -175 -82 -376
-182 l-365 -182 0 -131 c0 -155 13 -208 68 -280 27 -36 57 -60 106 -85 l69
-35 1081 0 1081 0 46 21 c67 31 124 87 156 152 28 56 28 59 33 297 4 203 8
245 22 272 59 107 225 110 289 6 24 -37 24 -42 24 -298 0 -259 0 -260 -28
-340 -64 -182 -181 -311 -352 -390 -136 -63 -78 -60 -1280 -60 -1236 0 -1150
-5 -1305 76 -175 91 -294 249 -334 442 -9 42 -16 101 -16 131 l0 54 -327 -160
c-181 -88 -330 -162 -332 -164 -6 -5 87 -172 147 -264 105 -162 198 -276 347
-425 355 -355 765 -582 1245 -689 256 -57 593 -76 835 -47 464 55 897 227
1259 501 478 362 822 892 951 1464 48 215 58 315 59 566 1 320 -30 526 -120
800 -48 145 -133 342 -149 346 -5 2 -477 -227 -1047 -509z"/>
<path d="M2322 2542 c-40 -21 -50 -30 -41 -39 15 -15 109 30 109 52 0 20 -6
19 -68 -13z"/>
<path d="M2353 2488 c-30 -14 -29 -20 7 -46 l30 -23 0 41 c0 43 -3 45 -37 28z"/>
<path d="M1578 2173 c-255 -126 -338 -171 -338 -184 0 -14 75 19 358 159 308
152 381 194 327 191 -5 0 -162 -75 -347 -166z"/>
<path d="M553 1665 c-225 -110 -333 -169 -333 -179 0 -9 2 -16 5 -16 19 0 675
338 675 347 0 7 -3 13 -7 13 -5 0 -158 -74 -340 -165z"/>
</g>
</svg>
