<?xml version="1.0" standalone="no"?>
<!DOCTYPE svg PUBLIC "-//W3C//DTD SVG 20010904//EN"
 "http://www.w3.org/TR/2001/REC-SVG-20010904/DTD/svg10.dtd">
<svg version="1.0" xmlns="http://www.w3.org/2000/svg"
 width="512.000000pt" height="512.000000pt" viewBox="0 0 512.000000 512.000000"
 preserveAspectRatio="xMidYMid meet">

<g transform="translate(0.000000,512.000000) scale(0.100000,-0.100000)"
fill="#000000" stroke="none">
<path d="M3095 4171 c-63 -22 -1700 -658 -2690 -1046 -93 -36 -188 -77 -210
-90 -89 -53 -164 -157 -185 -259 -7 -36 -10 -192 -8 -473 l3 -418 32 -67 c36
-76 98 -149 157 -183 52 -30 1449 -660 1536 -693 56 -20 78 -23 155 -20 l90 4
880 343 c484 189 1134 442 1445 563 311 121 583 229 604 240 97 50 182 164
206 276 7 31 10 200 8 468 l-3 419 -32 67 c-36 76 -98 148 -157 183 -54 31
-1475 672 -1545 696 -83 29 -187 25 -286 -10z m251 -26 c79 -23 1549 -689
1589 -720 48 -36 90 -95 115 -162 20 -54 21 -71 18 -497 l-3 -441 -27 -52
c-36 -68 -81 -118 -132 -148 -36 -21 -335 -139 -1639 -646 -196 -76 -359 -139
-362 -139 -2 0 -6 235 -7 523 l-3 522 -28 57 c-36 74 -102 145 -168 184 -30
17 -399 186 -821 375 -422 189 -764 347 -760 351 8 8 1941 762 2022 789 68 22
141 24 206 4z m-1521 -1170 c413 -186 777 -351 810 -367 60 -29 145 -92 135
-101 -3 -2 -187 -75 -410 -162 l-405 -159 -85 0 c-63 0 -98 6 -135 21 -68 28
-1589 714 -1594 719 -8 7 34 46 77 71 73 43 825 332 842 323 8 -4 353 -160
765 -345z m-1438 -211 c936 -423 1344 -604 1386 -614 27 -7 81 -10 125 -8 70
5 110 18 437 145 198 78 384 150 412 162 l53 21 19 -38 c38 -75 42 -137 39
-636 l-3 -479 -380 -148 c-569 -223 -583 -227 -690 -198 -42 11 -1476 653
-1558 697 -91 49 -158 148 -177 263 -12 77 -13 720 -1 804 7 50 45 155 56 155
2 0 128 -57 282 -126z"/>
<path d="M4350 3121 c-124 -48 -442 -173 -707 -276 -411 -160 -483 -191 -483
-208 0 -16 5 -19 28 -14 49 10 1416 547 1423 559 10 16 2 28 -19 28 -9 0 -118
-40 -242 -89z"/>
<path d="M1867 1914 c-4 -4 -7 -191 -7 -416 0 -402 0 -408 20 -408 20 0 20 5
18 412 -3 394 -6 437 -31 412z"/>
</g>
</svg>
