<?xml version="1.0" standalone="no"?>
<!DOCTYPE svg PUBLIC "-//W3C//DTD SVG 20010904//EN"
 "http://www.w3.org/TR/2001/REC-SVG-20010904/DTD/svg10.dtd">
<svg version="1.0" xmlns="http://www.w3.org/2000/svg"
 width="512.000000pt" height="512.000000pt" viewBox="0 0 512.000000 512.000000"
 preserveAspectRatio="xMidYMid meet">

<g transform="translate(0.000000,512.000000) scale(0.100000,-0.100000)"
fill="#000000" stroke="none">
<path d="M203 4949 c-33 -17 -48 -62 -34 -98 18 -43 48 -51 190 -51 156 0 471
-15 726 -35 609 -48 1075 -140 1310 -258 180 -90 228 -169 174 -287 -30 -67
-183 -211 -329 -309 -247 -167 -365 -266 -450 -380 -198 -262 -73 -484 351
-625 112 -38 331 -96 358 -96 9 0 45 28 79 63 l63 63 -68 14 c-120 23 -354 90
-447 126 -158 63 -256 135 -272 200 -23 92 113 255 356 424 51 36 131 92 178
125 110 77 240 200 288 272 70 105 89 223 52 310 -110 257 -601 419 -1513 502
-397 36 -975 59 -1012 40z"/>
<path d="M2505 1970 c-904 -905 -1137 -1142 -1125 -1150 8 -5 70 -10 137 -10
107 0 122 -2 127 -17 3 -10 17 -81 31 -158 22 -118 30 -144 51 -162 14 -13 35
-23 47 -23 15 0 189 168 597 575 l575 575 290 -1 c288 0 422 8 585 36 339 58
549 199 630 422 32 88 26 196 -15 272 -55 101 -175 191 -358 268 -45 19 -84
36 -86 39 -3 2 11 20 29 39 l34 35 -199 200 c-110 110 -202 200 -205 200 -3 0
-518 -513 -1145 -1140z m1457 505 c236 -91 357 -192 358 -297 0 -60 -41 -141
-106 -206 -154 -154 -442 -221 -944 -222 l-175 0 380 380 c209 209 383 380
388 380 4 0 49 -16 99 -35z"/>
<path d="M1255 1809 c-547 -44 -874 -206 -1015 -505 -42 -89 -60 -172 -60
-279 0 -116 20 -198 75 -310 49 -102 100 -174 183 -259 82 -84 119 -93 162
-39 34 43 26 68 -48 146 -222 235 -278 477 -161 697 123 230 413 360 885 396
l92 6 78 79 79 79 -85 -1 c-47 -1 -130 -5 -185 -10z"/>
<path d="M747 493 c-31 -136 -57 -255 -57 -264 0 -26 40 -69 64 -69 26 0 497
108 505 116 3 3 -98 108 -225 235 l-230 230 -57 -248z"/>
</g>
</svg>
